<mxfile host="65bd71144e">
    <diagram id="4sx_Nhmg-QBNdwEi0_BF" name="Page-1">
        <mxGraphModel dx="1195" dy="1885" grid="1" gridSize="10" guides="1" tooltips="1" connect="1" arrows="1" fold="1" page="1" pageScale="1" pageWidth="827" pageHeight="1169" math="0" shadow="0">
            <root>
                <mxCell id="0"/>
                <mxCell id="1" parent="0"/>
                <mxCell id="11" style="edgeStyle=none;html=1;exitX=1;exitY=0.5;exitDx=0;exitDy=0;" edge="1" parent="1" source="2" target="10">
                    <mxGeometry relative="1" as="geometry"/>
                </mxCell>
                <mxCell id="2" value="" style="whiteSpace=wrap;html=1;aspect=fixed;" parent="1" vertex="1">
                    <mxGeometry x="110" y="60" width="330" height="330" as="geometry"/>
                </mxCell>
                <mxCell id="3" value="Email&lt;div&gt;Password&lt;/div&gt;&lt;div&gt;&lt;br&gt;&lt;/div&gt;" style="rounded=1;whiteSpace=wrap;html=1;" parent="1" vertex="1">
                    <mxGeometry x="215" y="130" width="120" height="60" as="geometry"/>
                </mxCell>
                <mxCell id="4" value="Sign in With Google&lt;div&gt;&lt;br&gt;&lt;/div&gt;" style="rounded=1;whiteSpace=wrap;html=1;" parent="1" vertex="1">
                    <mxGeometry x="215" y="200" width="125" height="50" as="geometry"/>
                </mxCell>
                <mxCell id="6" value="Logo" style="rounded=0;whiteSpace=wrap;html=1;" parent="1" vertex="1">
                    <mxGeometry x="110" y="60" width="60" height="20" as="geometry"/>
                </mxCell>
                <mxCell id="9" value="Sign in with Apple" style="rounded=1;whiteSpace=wrap;html=1;" parent="1" vertex="1">
                    <mxGeometry x="220" y="260" width="120" height="60" as="geometry"/>
                </mxCell>
                <mxCell id="15" value="" style="edgeStyle=none;html=1;" edge="1" parent="1" source="10" target="14">
                    <mxGeometry relative="1" as="geometry"/>
                </mxCell>
                <mxCell id="10" value="1- Extract Full Name from user Login&lt;div&gt;2- Image Upload&lt;/div&gt;&lt;div&gt;&lt;br&gt;&lt;/div&gt;" style="whiteSpace=wrap;html=1;aspect=fixed;" vertex="1" parent="1">
                    <mxGeometry x="500" y="70" width="290" height="290" as="geometry"/>
                </mxCell>
                <mxCell id="12" value="Father Profile Creation&lt;div&gt;&lt;br&gt;&lt;/div&gt;" style="text;html=1;align=center;verticalAlign=middle;whiteSpace=wrap;rounded=0;" vertex="1" parent="1">
                    <mxGeometry x="615" width="60" height="70" as="geometry"/>
                </mxCell>
                <mxCell id="18" value="" style="edgeStyle=none;html=1;" edge="1" parent="1" source="14" target="17">
                    <mxGeometry relative="1" as="geometry"/>
                </mxCell>
                <mxCell id="19" value="Planning" style="edgeLabel;html=1;align=center;verticalAlign=middle;resizable=0;points=[];" vertex="1" connectable="0" parent="18">
                    <mxGeometry x="-0.2378" relative="1" as="geometry">
                        <mxPoint y="-1" as="offset"/>
                    </mxGeometry>
                </mxCell>
                <mxCell id="23" value="" style="edgeStyle=none;html=1;" edge="1" parent="1" source="14" target="22">
                    <mxGeometry relative="1" as="geometry"/>
                </mxCell>
                <mxCell id="24" value="Expecting" style="edgeLabel;html=1;align=center;verticalAlign=middle;resizable=0;points=[];" vertex="1" connectable="0" parent="23">
                    <mxGeometry x="-0.1688" relative="1" as="geometry">
                        <mxPoint as="offset"/>
                    </mxGeometry>
                </mxCell>
                <mxCell id="26" value="" style="edgeStyle=none;html=1;" edge="1" parent="1" source="14" target="25">
                    <mxGeometry relative="1" as="geometry"/>
                </mxCell>
                <mxCell id="14" value="&lt;br&gt;&lt;div&gt;3- Planning,expecting,already a father?&lt;/div&gt;&lt;div&gt;4- How many kids do you have?&lt;/div&gt;&lt;div&gt;5-how old are they&lt;/div&gt;" style="whiteSpace=wrap;html=1;aspect=fixed;" vertex="1" parent="1">
                    <mxGeometry x="870" y="70" width="290" height="290" as="geometry"/>
                </mxCell>
                <mxCell id="16" value="Kids Information&lt;div&gt;&lt;br&gt;&lt;/div&gt;" style="whiteSpace=wrap;html=1;" vertex="1" parent="1">
                    <mxGeometry x="940" y="-10" width="120" height="60" as="geometry"/>
                </mxCell>
                <mxCell id="17" value="They can be labeled Planning&lt;div&gt;-They can get content tailor to fathers plannnig&lt;/div&gt;" style="whiteSpace=wrap;html=1;aspect=fixed;" vertex="1" parent="1">
                    <mxGeometry x="780" y="500" width="90" height="90" as="geometry"/>
                </mxCell>
                <mxCell id="22" value="If its not intrusive&amp;nbsp;&lt;div&gt;- Maybe get a due date&lt;/div&gt;&lt;div&gt;- Tailor Content for those. along with&lt;/div&gt;&lt;div&gt;&amp;nbsp;- possible recommendation on things to do etc&lt;/div&gt;" style="whiteSpace=wrap;html=1;aspect=fixed;" vertex="1" parent="1">
                    <mxGeometry x="1320" y="-240" width="230" height="230" as="geometry"/>
                </mxCell>
                <mxCell id="25" value="" style="whiteSpace=wrap;html=1;aspect=fixed;" vertex="1" parent="1">
                    <mxGeometry x="1240.5" y="80" width="290" height="290" as="geometry"/>
                </mxCell>
                <mxCell id="27" value="Liam&lt;div&gt;Jessica&amp;nbsp;&lt;/div&gt;&lt;div&gt;Raven&lt;/div&gt;" style="whiteSpace=wrap;html=1;aspect=fixed;" vertex="1" parent="1">
                    <mxGeometry x="1250" y="160" width="100" height="100" as="geometry"/>
                </mxCell>
                <mxCell id="28" value="Scrolling option to pick their date of birth" style="whiteSpace=wrap;html=1;aspect=fixed;" vertex="1" parent="1">
                    <mxGeometry x="1350" y="160" width="100" height="100" as="geometry"/>
                </mxCell>
            </root>
        </mxGraphModel>
    </diagram>
</mxfile>